# xmcd
#
# Track frame offsets: 
#        150
#        14891
#        32845
#        49462
#        68086
#        80714
#        91867
#        110287
#        133390
#        134850
#        152030
#        173626
#        189228
#        193411
#        208631
#        230074
#        245854
#        269071
#        272263
#        288263
#        296751
#        319669
#
# Disc length: 4531 seconds
#
# Revision: 0
# Processed by: cddbd v1.5.1PL0 Copyright (c) Steve Scherf et al.
# Submitted via: ExactAudioCopy v0.95a3
#
DISCID=6211b116
DTITLE=Kevin Deal - Raw Deal
DYEAR=2005
DGENRE=
TTITLE0=You Ain't Anybody
TTITLE1=Diesel
TTITLE2=Boomtown
TTITLE3=Jump Off The Wagon
TTITLE4=Backslidin' Man
TTITLE5=Cracked Up
TTITLE6=Quicker Than The Eye
TTITLE7=Mississippi Kid
TTITLE8=Outro
TTITLE9=Hard Times (studio cut)
TTITLE10=I've Got To Believe(studio cut)
TTITLE11=Kiss On The Breeze
TTITLE12=Intro Things I've Done For Love
TTITLE13=Things I've Done For Love
TTITLE14=Can't Hold a Candle
TTITLE15=Asleep At The Wheel
TTITLE16=Honky Tonks -n Churches
TTITLE17=Band Intro
TTITLE18=Hany You
TTITLE19=Intro My Father's Redneck
TTITLE20=My Father's Redneck
TTITLE21=Smoke
EXTD=
EXTT0=
EXTT1=
EXTT2=
EXTT3=
EXTT4=
EXTT5=
EXTT6=
EXTT7=
EXTT8=
EXTT9=
EXTT10=
EXTT11=
EXTT12=
EXTT13=
EXTT14=
EXTT15=
EXTT16=
EXTT17=
EXTT18=
EXTT19=
EXTT20=
EXTT21=
PLAYORDER=
